<svg width="653" height="800" viewBox="0 0 653 800" fill="none" xmlns="http://www.w3.org/2000/svg">
<g clip-path="url(#clip0_3_10)">
<mask id="path-1-outside-1_3_10" maskUnits="userSpaceOnUse" x="26" y="37" width="619" height="746" fill="black">
<rect fill="white" x="26" y="37" width="619" height="746"/>
<path d="M146.77 383.117V145.324H569.621V235.168H234.172V293.762H382.121C718.547 293.762 708.293 772.766 410.441 772.766H279.582C167.766 772.766 59.3672 695.617 37.8828 585.754L121.379 569.152C130.656 649.23 209.758 689.27 287.883 689.27H406.047C592.082 689.27 588.664 383.117 393.352 383.117H146.77ZM404.094 481.75C458.781 481.75 460.734 591.613 404.094 591.613H271.281C247.355 590.637 226.359 574.523 219.035 551.574L132.609 568.176C141.887 641.906 215.129 678.039 285.441 679.992H406.047C577.434 679.992 575.48 394.348 394.328 393.371H137.492V136.535H569.621V47.668H50.0898V481.75H404.094Z"/>
</mask>
<path d="M146.77 383.117H136.77V393.117H146.77V383.117ZM146.77 145.324V135.324H136.77V145.324H146.77ZM569.621 145.324H579.621V135.324H569.621V145.324ZM569.621 235.168V245.168H579.621V235.168H569.621ZM234.172 235.168V225.168H224.172V235.168H234.172ZM234.172 293.762H224.172V303.762H234.172V293.762ZM37.8828 585.754L35.9327 575.946L26.1555 577.89L28.0687 587.673L37.8828 585.754ZM121.379 569.152L131.312 568.002L130.065 557.23L119.429 559.344L121.379 569.152ZM271.281 591.613L270.873 601.605L271.077 601.613H271.281V591.613ZM219.035 551.574L228.562 548.534L225.864 540.08L217.149 541.754L219.035 551.574ZM132.609 568.176L130.723 558.355L121.517 560.124L122.688 569.424L132.609 568.176ZM285.441 679.992L285.164 689.988L285.303 689.992H285.441V679.992ZM394.328 393.371L394.382 383.371L394.355 383.371H394.328V393.371ZM137.492 393.371H127.492V403.371H137.492V393.371ZM137.492 136.535V126.535H127.492V136.535H137.492ZM569.621 136.535V146.535H579.621V136.535H569.621ZM569.621 47.668H579.621V37.668H569.621V47.668ZM50.0898 47.668V37.668H40.0898V47.668H50.0898ZM50.0898 481.75H40.0898V491.75H50.0898V481.75ZM156.77 383.117V145.324H136.77V383.117H156.77ZM146.77 155.324H569.621V135.324H146.77V155.324ZM559.621 145.324V235.168H579.621V145.324H559.621ZM569.621 225.168H234.172V245.168H569.621V225.168ZM224.172 235.168V293.762H244.172V235.168H224.172ZM234.172 303.762H382.121V283.762H234.172V303.762ZM382.121 303.762C463.673 303.762 523.379 332.702 563.033 375.41C602.84 418.284 623.048 475.701 624.137 533.452C625.227 591.228 607.167 648.671 571.314 691.503C535.635 734.126 481.961 762.766 410.441 762.766V782.766C487.848 782.766 547.15 751.529 586.65 704.34C625.978 657.358 645.302 595.05 644.133 533.075C642.964 471.076 621.272 408.742 577.689 361.802C533.954 314.697 468.782 283.762 382.121 283.762V303.762ZM410.441 762.766H279.582V782.766H410.441V762.766ZM279.582 762.766C171.797 762.766 68.1263 688.303 47.6969 583.835L28.0687 587.673C50.608 702.931 163.734 782.766 279.582 782.766V762.766ZM39.8329 595.562L123.329 578.96L119.429 559.344L35.9327 575.946L39.8329 595.562ZM111.445 570.303C121.588 657.851 207.571 699.27 287.883 699.27V679.27C211.944 679.27 139.724 640.61 131.312 568.002L111.445 570.303ZM287.883 699.27H406.047V679.27H287.883V699.27ZM406.047 699.27C455.609 699.27 493.16 678.741 517.844 647.651C542.326 616.817 553.759 576.144 552.701 535.93C551.642 495.701 538.064 455.106 511.45 424.403C484.654 393.491 445.053 373.117 393.352 373.117V393.117C439.306 393.117 473.375 411.013 496.338 437.503C519.483 464.205 531.753 500.147 532.708 536.456C533.664 572.781 523.277 608.645 502.181 635.215C481.288 661.529 449.503 679.27 406.047 679.27V699.27ZM393.352 373.117H146.77V393.117H393.352V373.117ZM404.094 491.75C413.891 491.75 421.39 496.476 426.855 504.531C432.504 512.855 435.734 524.549 435.842 536.771C435.951 548.999 432.926 560.623 427.382 568.866C422.056 576.784 414.491 581.613 404.094 581.613V601.613C422.016 601.613 435.448 592.71 443.977 580.028C452.288 567.672 455.977 551.83 455.841 536.593C455.706 521.349 451.734 505.576 443.405 493.301C434.894 480.757 421.64 471.75 404.094 471.75V491.75ZM404.094 581.613H271.281V601.613H404.094V581.613ZM271.689 581.622C252.006 580.818 234.622 567.523 228.562 548.534L209.509 554.615C218.097 581.524 242.705 600.455 270.873 601.605L271.689 581.622ZM217.149 541.754L130.723 558.355L134.496 577.996L220.922 561.395L217.149 541.754ZM122.688 569.424C132.893 650.529 212.92 687.982 285.164 689.988L285.719 669.996C217.338 668.097 150.881 633.284 142.531 566.927L122.688 569.424ZM285.441 689.992H406.047V669.992H285.441V689.992ZM406.047 689.992C451.994 689.992 486.89 670.706 509.852 641.53C532.611 612.612 543.287 574.494 542.387 536.809C541.486 499.107 528.981 460.996 504.289 432.075C479.414 402.938 442.566 383.631 394.382 383.371L394.274 403.371C436.667 403.599 467.994 420.364 489.079 445.061C510.347 469.972 521.584 503.455 522.393 537.287C523.201 571.135 513.553 604.489 494.136 629.16C474.923 653.573 445.793 669.992 406.047 669.992V689.992ZM394.328 383.371H137.492V403.371H394.328V383.371ZM147.492 393.371V136.535H127.492V393.371H147.492ZM137.492 146.535H569.621V126.535H137.492V146.535ZM579.621 136.535V47.668H559.621V136.535H579.621ZM569.621 37.668H50.0898V57.668H569.621V37.668ZM40.0898 47.668V481.75H60.0898V47.668H40.0898ZM50.0898 491.75H404.094V471.75H50.0898V491.75Z" fill="#F433CF" mask="url(#path-1-outside-1_3_10)"/>
<mask id="path-3-outside-2_3_10" maskUnits="userSpaceOnUse" x="7" y="19" width="619" height="746" fill="black">
<rect fill="white" x="7" y="19" width="619" height="746"/>
<path d="M127.77 365.117V127.324H550.621V217.168H215.172V275.762H363.121C699.547 275.762 689.293 754.766 391.441 754.766H260.582C148.766 754.766 40.3672 677.617 18.8828 567.754L102.379 551.152C111.656 631.23 190.758 671.27 268.883 671.27H387.047C573.082 671.27 569.664 365.117 374.352 365.117H127.77ZM385.094 463.75C439.781 463.75 441.734 573.613 385.094 573.613H252.281C228.355 572.637 207.359 556.523 200.035 533.574L113.609 550.176C122.887 623.906 196.129 660.039 266.441 661.992H387.047C558.434 661.992 556.48 376.348 375.328 375.371H118.492V118.535H550.621V29.668H31.0898V463.75H385.094Z"/>
</mask>
<path d="M127.77 365.117H117.77V375.117H127.77V365.117ZM127.77 127.324V117.324H117.77V127.324H127.77ZM550.621 127.324H560.621V117.324H550.621V127.324ZM550.621 217.168V227.168H560.621V217.168H550.621ZM215.172 217.168V207.168H205.172V217.168H215.172ZM215.172 275.762H205.172V285.762H215.172V275.762ZM18.8828 567.754L16.9327 557.946L7.15554 559.89L9.06871 569.673L18.8828 567.754ZM102.379 551.152L112.312 550.002L111.065 539.23L100.429 541.344L102.379 551.152ZM252.281 573.613L251.873 583.605L252.077 583.613H252.281V573.613ZM200.035 533.574L209.562 530.534L206.864 522.08L198.149 523.754L200.035 533.574ZM113.609 550.176L111.723 540.355L102.517 542.124L103.688 551.424L113.609 550.176ZM266.441 661.992L266.164 671.988L266.303 671.992H266.441V661.992ZM375.328 375.371L375.382 365.371L375.355 365.371H375.328V375.371ZM118.492 375.371H108.492V385.371H118.492V375.371ZM118.492 118.535V108.535H108.492V118.535H118.492ZM550.621 118.535V128.535H560.621V118.535H550.621ZM550.621 29.668H560.621V19.668H550.621V29.668ZM31.0898 29.668V19.668H21.0898V29.668H31.0898ZM31.0898 463.75H21.0898V473.75H31.0898V463.75ZM137.77 365.117V127.324H117.77V365.117H137.77ZM127.77 137.324H550.621V117.324H127.77V137.324ZM540.621 127.324V217.168H560.621V127.324H540.621ZM550.621 207.168H215.172V227.168H550.621V207.168ZM205.172 217.168V275.762H225.172V217.168H205.172ZM215.172 285.762H363.121V265.762H215.172V285.762ZM363.121 285.762C444.673 285.762 504.379 314.702 544.033 357.41C583.84 400.284 604.048 457.701 605.137 515.452C606.227 573.228 588.167 630.671 552.314 673.503C516.635 716.126 462.961 744.766 391.441 744.766V764.766C468.848 764.766 528.15 733.529 567.65 686.34C606.978 639.358 626.302 577.05 625.133 515.075C623.964 453.076 602.272 390.742 558.689 343.802C514.954 296.697 449.782 265.762 363.121 265.762V285.762ZM391.441 744.766H260.582V764.766H391.441V744.766ZM260.582 744.766C152.797 744.766 49.1263 670.303 28.6969 565.835L9.06871 569.673C31.608 684.931 144.734 764.766 260.582 764.766V744.766ZM20.8329 577.562L104.329 560.96L100.429 541.344L16.9327 557.946L20.8329 577.562ZM92.4453 552.303C102.588 639.851 188.571 681.27 268.883 681.27V661.27C192.944 661.27 120.724 622.61 112.312 550.002L92.4453 552.303ZM268.883 681.27H387.047V661.27H268.883V681.27ZM387.047 681.27C436.609 681.27 474.16 660.741 498.844 629.651C523.326 598.817 534.759 558.144 533.701 517.93C532.642 477.701 519.064 437.106 492.45 406.403C465.654 375.491 426.053 355.117 374.352 355.117V375.117C420.306 375.117 454.375 393.013 477.338 419.503C500.483 446.205 512.753 482.147 513.708 518.456C514.664 554.781 504.277 590.645 483.181 617.215C462.288 643.529 430.503 661.27 387.047 661.27V681.27ZM374.352 355.117H127.77V375.117H374.352V355.117ZM385.094 473.75C394.891 473.75 402.39 478.476 407.855 486.531C413.504 494.855 416.734 506.549 416.842 518.771C416.951 530.999 413.926 542.623 408.382 550.866C403.056 558.784 395.491 563.613 385.094 563.613V583.613C403.016 583.613 416.448 574.71 424.977 562.028C433.288 549.672 436.977 533.83 436.841 518.593C436.706 503.349 432.734 487.576 424.405 475.301C415.894 462.757 402.64 453.75 385.094 453.75V473.75ZM385.094 563.613H252.281V583.613H385.094V563.613ZM252.689 563.622C233.006 562.818 215.622 549.523 209.562 530.534L190.509 536.615C199.097 563.524 223.705 582.455 251.873 583.605L252.689 563.622ZM198.149 523.754L111.723 540.355L115.496 559.996L201.922 543.395L198.149 523.754ZM103.688 551.424C113.893 632.529 193.92 669.982 266.164 671.988L266.719 651.996C198.338 650.097 131.881 615.284 123.531 548.927L103.688 551.424ZM266.441 671.992H387.047V651.992H266.441V671.992ZM387.047 671.992C432.994 671.992 467.89 652.706 490.852 623.53C513.611 594.612 524.287 556.494 523.387 518.809C522.486 481.107 509.981 442.996 485.289 414.075C460.414 384.938 423.566 365.631 375.382 365.371L375.274 385.371C417.667 385.599 448.994 402.364 470.079 427.061C491.347 451.972 502.584 485.455 503.393 519.287C504.201 553.135 494.553 586.489 475.136 611.16C455.923 635.573 426.793 651.992 387.047 651.992V671.992ZM375.328 365.371H118.492V385.371H375.328V365.371ZM128.492 375.371V118.535H108.492V375.371H128.492ZM118.492 128.535H550.621V108.535H118.492V128.535ZM560.621 118.535V29.668H540.621V118.535H560.621ZM550.621 19.668H31.0898V39.668H550.621V19.668ZM21.0898 29.668V463.75H41.0898V29.668H21.0898ZM31.0898 473.75H385.094V453.75H31.0898V473.75Z" fill="#00FBFF" mask="url(#path-3-outside-2_3_10)"/>
<mask id="path-5-outside-3_3_10" maskUnits="userSpaceOnUse" x="16" y="27" width="619" height="746" fill="black">
<rect fill="white" x="16" y="27" width="619" height="746"/>
<path d="M136.77 373.117V135.324H559.621V225.168H224.172V283.762H372.121C708.547 283.762 698.293 762.766 400.441 762.766H269.582C157.766 762.766 49.3672 685.617 27.8828 575.754L111.379 559.152C120.656 639.23 199.758 679.27 277.883 679.27H396.047C582.082 679.27 578.664 373.117 383.352 373.117H136.77ZM394.094 471.75C448.781 471.75 450.734 581.613 394.094 581.613H261.281C237.355 580.637 216.359 564.523 209.035 541.574L122.609 558.176C131.887 631.906 205.129 668.039 275.441 669.992H396.047C567.434 669.992 565.48 384.348 384.328 383.371H127.492V126.535H559.621V37.668H40.0898V471.75H394.094Z"/>
</mask>
<path d="M136.77 373.117H126.77V383.117H136.77V373.117ZM136.77 135.324V125.324H126.77V135.324H136.77ZM559.621 135.324H569.621V125.324H559.621V135.324ZM559.621 225.168V235.168H569.621V225.168H559.621ZM224.172 225.168V215.168H214.172V225.168H224.172ZM224.172 283.762H214.172V293.762H224.172V283.762ZM27.8828 575.754L25.9327 565.946L16.1555 567.89L18.0687 577.673L27.8828 575.754ZM111.379 559.152L121.312 558.002L120.065 547.23L109.429 549.344L111.379 559.152ZM261.281 581.613L260.873 591.605L261.077 591.613H261.281V581.613ZM209.035 541.574L218.562 538.534L215.864 530.08L207.149 531.754L209.035 541.574ZM122.609 558.176L120.723 548.355L111.517 550.124L112.688 559.424L122.609 558.176ZM275.441 669.992L275.164 679.988L275.303 679.992H275.441V669.992ZM384.328 383.371L384.382 373.371L384.355 373.371H384.328V383.371ZM127.492 383.371H117.492V393.371H127.492V383.371ZM127.492 126.535V116.535H117.492V126.535H127.492ZM559.621 126.535V136.535H569.621V126.535H559.621ZM559.621 37.668H569.621V27.668H559.621V37.668ZM40.0898 37.668V27.668H30.0898V37.668H40.0898ZM40.0898 471.75H30.0898V481.75H40.0898V471.75ZM146.77 373.117V135.324H126.77V373.117H146.77ZM136.77 145.324H559.621V125.324H136.77V145.324ZM549.621 135.324V225.168H569.621V135.324H549.621ZM559.621 215.168H224.172V235.168H559.621V215.168ZM214.172 225.168V283.762H234.172V225.168H214.172ZM224.172 293.762H372.121V273.762H224.172V293.762ZM372.121 293.762C453.673 293.762 513.379 322.702 553.033 365.41C592.84 408.284 613.048 465.701 614.137 523.452C615.227 581.228 597.167 638.671 561.314 681.503C525.635 724.126 471.961 752.766 400.441 752.766V772.766C477.848 772.766 537.15 741.529 576.65 694.34C615.978 647.358 635.302 585.05 634.133 523.075C632.964 461.076 611.272 398.742 567.689 351.802C523.954 304.697 458.782 273.762 372.121 273.762V293.762ZM400.441 752.766H269.582V772.766H400.441V752.766ZM269.582 752.766C161.797 752.766 58.1263 678.303 37.6969 573.835L18.0687 577.673C40.608 692.931 153.734 772.766 269.582 772.766V752.766ZM29.8329 585.562L113.329 568.96L109.429 549.344L25.9327 565.946L29.8329 585.562ZM101.445 560.303C111.588 647.851 197.571 689.27 277.883 689.27V669.27C201.944 669.27 129.724 630.61 121.312 558.002L101.445 560.303ZM277.883 689.27H396.047V669.27H277.883V689.27ZM396.047 689.27C445.609 689.27 483.16 668.741 507.844 637.651C532.326 606.817 543.759 566.144 542.701 525.93C541.642 485.701 528.064 445.106 501.45 414.403C474.654 383.491 435.053 363.117 383.352 363.117V383.117C429.306 383.117 463.375 401.013 486.338 427.503C509.483 454.205 521.753 490.147 522.708 526.456C523.664 562.781 513.277 598.645 492.181 625.215C471.288 651.529 439.503 669.27 396.047 669.27V689.27ZM383.352 363.117H136.77V383.117H383.352V363.117ZM394.094 481.75C403.891 481.75 411.39 486.476 416.855 494.531C422.504 502.855 425.734 514.549 425.842 526.771C425.951 538.999 422.926 550.623 417.382 558.866C412.056 566.784 404.491 571.613 394.094 571.613V591.613C412.016 591.613 425.448 582.71 433.977 570.028C442.288 557.672 445.977 541.83 445.841 526.593C445.706 511.349 441.734 495.576 433.405 483.301C424.894 470.757 411.64 461.75 394.094 461.75V481.75ZM394.094 571.613H261.281V591.613H394.094V571.613ZM261.689 571.622C242.006 570.818 224.622 557.523 218.562 538.534L199.509 544.615C208.097 571.524 232.705 590.455 260.873 591.605L261.689 571.622ZM207.149 531.754L120.723 548.355L124.496 567.996L210.922 551.395L207.149 531.754ZM112.688 559.424C122.893 640.529 202.92 677.982 275.164 679.988L275.719 659.996C207.338 658.097 140.881 623.284 132.531 556.927L112.688 559.424ZM275.441 679.992H396.047V659.992H275.441V679.992ZM396.047 679.992C441.994 679.992 476.89 660.706 499.852 631.53C522.611 602.612 533.287 564.494 532.387 526.809C531.486 489.107 518.981 450.996 494.289 422.075C469.414 392.938 432.566 373.631 384.382 373.371L384.274 393.371C426.667 393.599 457.994 410.364 479.079 435.061C500.347 459.972 511.584 493.455 512.393 527.287C513.201 561.135 503.553 594.489 484.136 619.16C464.923 643.573 435.793 659.992 396.047 659.992V679.992ZM384.328 373.371H127.492V393.371H384.328V373.371ZM137.492 383.371V126.535H117.492V383.371H137.492ZM127.492 136.535H559.621V116.535H127.492V136.535ZM569.621 126.535V37.668H549.621V126.535H569.621ZM559.621 27.668H40.0898V47.668H559.621V27.668ZM30.0898 37.668V471.75H50.0898V37.668H30.0898ZM40.0898 481.75H394.094V461.75H40.0898V481.75Z" fill="#56AED1" mask="url(#path-5-outside-3_3_10)"/>
</g>
<defs>
<clipPath id="clip0_3_10">
<rect width="653" height="800" fill="white"/>
</clipPath>
</defs>
</svg>
