<svg width="881" height="307" viewBox="0 0 881 307" fill="none" xmlns="http://www.w3.org/2000/svg">
<g clip-path="url(#clip0_3_11)">
<path d="M74.4434 291L19.8926 236.654V73.207L74.4434 18.8613H110.537V291H74.4434ZM185.186 127.963V73.207H124.893V18.8613H221.484L275.83 73.207V127.963H185.186ZM124.893 291V236.654H185.186V196.869H275.83V236.654L221.484 291H124.893ZM533.991 291L522.506 261.264H433.502L452.37 207.328H501.588L428.786 18.8613H517.174L625.661 291H533.991ZM321.735 291L418.942 31.166L459.137 139.242L409.303 291H321.735ZM633.626 78.1289V18.8613H869.876V78.1289H633.626ZM704.583 291V92.2793H798.919V291H704.583Z" fill="#F433CF"/>
</g>
<defs>
<clipPath id="clip0_3_11">
<rect width="881" height="307" fill="white"/>
</clipPath>
</defs>
</svg>
