<svg width="1000" height="1000" viewBox="0 0 1000 1000" fill="none" xmlns="http://www.w3.org/2000/svg">
<g clip-path="url(#clip0_1_2)">
<mask id="path-1-outside-1_1_2" maskUnits="userSpaceOnUse" x="202" y="130" width="619" height="746" fill="black">
<rect fill="white" x="202" y="130" width="619" height="746"/>
<path d="M322.77 476.117V238.324H745.621V328.168H410.172V386.762H558.121C894.547 386.762 884.293 865.766 586.441 865.766H455.582C343.766 865.766 235.367 788.617 213.883 678.754L297.379 662.152C306.656 742.23 385.758 782.27 463.883 782.27H582.047C768.082 782.27 764.664 476.117 569.352 476.117H322.77ZM580.094 574.75C634.781 574.75 636.734 684.613 580.094 684.613H447.281C423.355 683.637 402.359 667.523 395.035 644.574L308.609 661.176C317.887 734.906 391.129 771.039 461.441 772.992H582.047C753.434 772.992 751.48 487.348 570.328 486.371H313.492V229.535H745.621V140.668H226.09V574.75H580.094Z"/>
</mask>
<path d="M322.77 476.117H312.77V486.117H322.77V476.117ZM322.77 238.324V228.324H312.77V238.324H322.77ZM745.621 238.324H755.621V228.324H745.621V238.324ZM745.621 328.168V338.168H755.621V328.168H745.621ZM410.172 328.168V318.168H400.172V328.168H410.172ZM410.172 386.762H400.172V396.762H410.172V386.762ZM213.883 678.754L211.933 668.946L202.156 670.89L204.069 680.673L213.883 678.754ZM297.379 662.152L307.312 661.002L306.065 650.23L295.429 652.344L297.379 662.152ZM447.281 684.613L446.873 694.605L447.077 694.613H447.281V684.613ZM395.035 644.574L404.562 641.534L401.864 633.08L393.149 634.754L395.035 644.574ZM308.609 661.176L306.723 651.355L297.517 653.124L298.688 662.424L308.609 661.176ZM461.441 772.992L461.164 782.988L461.303 782.992H461.441V772.992ZM570.328 486.371L570.382 476.371L570.355 476.371H570.328V486.371ZM313.492 486.371H303.492V496.371H313.492V486.371ZM313.492 229.535V219.535H303.492V229.535H313.492ZM745.621 229.535V239.535H755.621V229.535H745.621ZM745.621 140.668H755.621V130.668H745.621V140.668ZM226.09 140.668V130.668H216.09V140.668H226.09ZM226.09 574.75H216.09V584.75H226.09V574.75ZM332.77 476.117V238.324H312.77V476.117H332.77ZM322.77 248.324H745.621V228.324H322.77V248.324ZM735.621 238.324V328.168H755.621V238.324H735.621ZM745.621 318.168H410.172V338.168H745.621V318.168ZM400.172 328.168V386.762H420.172V328.168H400.172ZM410.172 396.762H558.121V376.762H410.172V396.762ZM558.121 396.762C639.673 396.762 699.379 425.702 739.033 468.41C778.84 511.284 799.048 568.701 800.137 626.452C801.227 684.228 783.167 741.671 747.314 784.503C711.635 827.126 657.961 855.766 586.441 855.766V875.766C663.848 875.766 723.15 844.529 762.65 797.34C801.978 750.358 821.302 688.05 820.133 626.075C818.964 564.076 797.272 501.742 753.689 454.802C709.954 407.697 644.782 376.762 558.121 376.762V396.762ZM586.441 855.766H455.582V875.766H586.441V855.766ZM455.582 855.766C347.797 855.766 244.126 781.303 223.697 676.835L204.069 680.673C226.608 795.931 339.734 875.766 455.582 875.766V855.766ZM215.833 688.562L299.329 671.96L295.429 652.344L211.933 668.946L215.833 688.562ZM287.445 663.303C297.588 750.851 383.571 792.27 463.883 792.27V772.27C387.944 772.27 315.724 733.61 307.312 661.002L287.445 663.303ZM463.883 792.27H582.047V772.27H463.883V792.27ZM582.047 792.27C631.609 792.27 669.16 771.741 693.844 740.651C718.326 709.817 729.759 669.144 728.701 628.93C727.642 588.701 714.064 548.106 687.45 517.403C660.654 486.491 621.053 466.117 569.352 466.117V486.117C615.306 486.117 649.375 504.013 672.338 530.503C695.483 557.205 707.753 593.147 708.708 629.456C709.664 665.781 699.277 701.645 678.181 728.215C657.288 754.529 625.503 772.27 582.047 772.27V792.27ZM569.352 466.117H322.77V486.117H569.352V466.117ZM580.094 584.75C589.891 584.75 597.39 589.476 602.855 597.531C608.504 605.855 611.734 617.549 611.842 629.771C611.951 641.999 608.926 653.623 603.382 661.866C598.056 669.784 590.491 674.613 580.094 674.613V694.613C598.016 694.613 611.448 685.71 619.977 673.028C628.288 660.672 631.977 644.83 631.841 629.593C631.706 614.349 627.734 598.576 619.405 586.301C610.894 573.757 597.64 564.75 580.094 564.75V584.75ZM580.094 674.613H447.281V694.613H580.094V674.613ZM447.689 674.622C428.006 673.818 410.622 660.523 404.562 641.534L385.509 647.615C394.097 674.524 418.705 693.455 446.873 694.605L447.689 674.622ZM393.149 634.754L306.723 651.355L310.496 670.996L396.922 654.395L393.149 634.754ZM298.688 662.424C308.893 743.529 388.92 780.982 461.164 782.988L461.719 762.996C393.338 761.097 326.881 726.284 318.531 659.927L298.688 662.424ZM461.441 782.992H582.047V762.992H461.441V782.992ZM582.047 782.992C627.994 782.992 662.89 763.706 685.852 734.53C708.611 705.612 719.287 667.494 718.387 629.809C717.486 592.107 704.981 553.996 680.289 525.075C655.414 495.938 618.566 476.631 570.382 476.371L570.274 496.371C612.667 496.599 643.994 513.364 665.079 538.061C686.347 562.972 697.584 596.455 698.393 630.287C699.201 664.135 689.553 697.489 670.136 722.16C650.923 746.573 621.793 762.992 582.047 762.992V782.992ZM570.328 476.371H313.492V496.371H570.328V476.371ZM323.492 486.371V229.535H303.492V486.371H323.492ZM313.492 239.535H745.621V219.535H313.492V239.535ZM755.621 229.535V140.668H735.621V229.535H755.621ZM745.621 130.668H226.09V150.668H745.621V130.668ZM216.09 140.668V574.75H236.09V140.668H216.09ZM226.09 584.75H580.094V564.75H226.09V584.75Z" fill="#F433CF" mask="url(#path-1-outside-1_1_2)"/>
<mask id="path-3-outside-2_1_2" maskUnits="userSpaceOnUse" x="183" y="112" width="619" height="746" fill="black">
<rect fill="white" x="183" y="112" width="619" height="746"/>
<path d="M303.77 458.117V220.324H726.621V310.168H391.172V368.762H539.121C875.547 368.762 865.293 847.766 567.441 847.766H436.582C324.766 847.766 216.367 770.617 194.883 660.754L278.379 644.152C287.656 724.23 366.758 764.27 444.883 764.27H563.047C749.082 764.27 745.664 458.117 550.352 458.117H303.77ZM561.094 556.75C615.781 556.75 617.734 666.613 561.094 666.613H428.281C404.355 665.637 383.359 649.523 376.035 626.574L289.609 643.176C298.887 716.906 372.129 753.039 442.441 754.992H563.047C734.434 754.992 732.48 469.348 551.328 468.371H294.492V211.535H726.621V122.668H207.09V556.75H561.094Z"/>
</mask>
<path d="M303.77 458.117H293.77V468.117H303.77V458.117ZM303.77 220.324V210.324H293.77V220.324H303.77ZM726.621 220.324H736.621V210.324H726.621V220.324ZM726.621 310.168V320.168H736.621V310.168H726.621ZM391.172 310.168V300.168H381.172V310.168H391.172ZM391.172 368.762H381.172V378.762H391.172V368.762ZM194.883 660.754L192.933 650.946L183.156 652.89L185.069 662.673L194.883 660.754ZM278.379 644.152L288.312 643.002L287.065 632.23L276.429 634.344L278.379 644.152ZM428.281 666.613L427.873 676.605L428.077 676.613H428.281V666.613ZM376.035 626.574L385.562 623.534L382.864 615.08L374.149 616.754L376.035 626.574ZM289.609 643.176L287.723 633.355L278.517 635.124L279.688 644.424L289.609 643.176ZM442.441 754.992L442.164 764.988L442.303 764.992H442.441V754.992ZM551.328 468.371L551.382 458.371L551.355 458.371H551.328V468.371ZM294.492 468.371H284.492V478.371H294.492V468.371ZM294.492 211.535V201.535H284.492V211.535H294.492ZM726.621 211.535V221.535H736.621V211.535H726.621ZM726.621 122.668H736.621V112.668H726.621V122.668ZM207.09 122.668V112.668H197.09V122.668H207.09ZM207.09 556.75H197.09V566.75H207.09V556.75ZM313.77 458.117V220.324H293.77V458.117H313.77ZM303.77 230.324H726.621V210.324H303.77V230.324ZM716.621 220.324V310.168H736.621V220.324H716.621ZM726.621 300.168H391.172V320.168H726.621V300.168ZM381.172 310.168V368.762H401.172V310.168H381.172ZM391.172 378.762H539.121V358.762H391.172V378.762ZM539.121 378.762C620.673 378.762 680.379 407.702 720.033 450.41C759.84 493.284 780.048 550.701 781.137 608.452C782.227 666.228 764.167 723.671 728.314 766.503C692.635 809.126 638.961 837.766 567.441 837.766V857.766C644.848 857.766 704.15 826.529 743.65 779.34C782.978 732.358 802.302 670.05 801.133 608.075C799.964 546.076 778.272 483.742 734.689 436.802C690.954 389.697 625.782 358.762 539.121 358.762V378.762ZM567.441 837.766H436.582V857.766H567.441V837.766ZM436.582 837.766C328.797 837.766 225.126 763.303 204.697 658.835L185.069 662.673C207.608 777.931 320.734 857.766 436.582 857.766V837.766ZM196.833 670.562L280.329 653.96L276.429 634.344L192.933 650.946L196.833 670.562ZM268.445 645.303C278.588 732.851 364.571 774.27 444.883 774.27V754.27C368.944 754.27 296.724 715.61 288.312 643.002L268.445 645.303ZM444.883 774.27H563.047V754.27H444.883V774.27ZM563.047 774.27C612.609 774.27 650.16 753.741 674.844 722.651C699.326 691.817 710.759 651.144 709.701 610.93C708.642 570.701 695.064 530.106 668.45 499.403C641.654 468.491 602.053 448.117 550.352 448.117V468.117C596.306 468.117 630.375 486.013 653.338 512.503C676.483 539.205 688.753 575.147 689.708 611.456C690.664 647.781 680.277 683.645 659.181 710.215C638.288 736.529 606.503 754.27 563.047 754.27V774.27ZM550.352 448.117H303.77V468.117H550.352V448.117ZM561.094 566.75C570.891 566.75 578.39 571.476 583.855 579.531C589.504 587.855 592.734 599.549 592.842 611.771C592.951 623.999 589.926 635.623 584.382 643.866C579.056 651.784 571.491 656.613 561.094 656.613V676.613C579.016 676.613 592.448 667.71 600.977 655.028C609.288 642.672 612.977 626.83 612.841 611.593C612.706 596.349 608.734 580.576 600.405 568.301C591.894 555.757 578.64 546.75 561.094 546.75V566.75ZM561.094 656.613H428.281V676.613H561.094V656.613ZM428.689 656.622C409.006 655.818 391.622 642.523 385.562 623.534L366.509 629.615C375.097 656.524 399.705 675.455 427.873 676.605L428.689 656.622ZM374.149 616.754L287.723 633.355L291.496 652.996L377.922 636.395L374.149 616.754ZM279.688 644.424C289.893 725.529 369.92 762.982 442.164 764.988L442.719 744.996C374.338 743.097 307.881 708.284 299.531 641.927L279.688 644.424ZM442.441 764.992H563.047V744.992H442.441V764.992ZM563.047 764.992C608.994 764.992 643.89 745.706 666.852 716.53C689.611 687.612 700.287 649.494 699.387 611.809C698.486 574.107 685.981 535.996 661.289 507.075C636.414 477.938 599.566 458.631 551.382 458.371L551.274 478.371C593.667 478.599 624.994 495.364 646.079 520.061C667.347 544.972 678.584 578.455 679.393 612.287C680.201 646.135 670.553 679.489 651.136 704.16C631.923 728.573 602.793 744.992 563.047 744.992V764.992ZM551.328 458.371H294.492V478.371H551.328V458.371ZM304.492 468.371V211.535H284.492V468.371H304.492ZM294.492 221.535H726.621V201.535H294.492V221.535ZM736.621 211.535V122.668H716.621V211.535H736.621ZM726.621 112.668H207.09V132.668H726.621V112.668ZM197.09 122.668V556.75H217.09V122.668H197.09ZM207.09 566.75H561.094V546.75H207.09V566.75Z" fill="#00FBFF" mask="url(#path-3-outside-2_1_2)"/>
<mask id="path-5-outside-3_1_2" maskUnits="userSpaceOnUse" x="192" y="120" width="619" height="746" fill="black">
<rect fill="white" x="192" y="120" width="619" height="746"/>
<path d="M312.77 466.117V228.324H735.621V318.168H400.172V376.762H548.121C884.547 376.762 874.293 855.766 576.441 855.766H445.582C333.766 855.766 225.367 778.617 203.883 668.754L287.379 652.152C296.656 732.23 375.758 772.27 453.883 772.27H572.047C758.082 772.27 754.664 466.117 559.352 466.117H312.77ZM570.094 564.75C624.781 564.75 626.734 674.613 570.094 674.613H437.281C413.355 673.637 392.359 657.523 385.035 634.574L298.609 651.176C307.887 724.906 381.129 761.039 451.441 762.992H572.047C743.434 762.992 741.48 477.348 560.328 476.371H303.492V219.535H735.621V130.668H216.09V564.75H570.094Z"/>
</mask>
<path d="M312.77 466.117H302.77V476.117H312.77V466.117ZM312.77 228.324V218.324H302.77V228.324H312.77ZM735.621 228.324H745.621V218.324H735.621V228.324ZM735.621 318.168V328.168H745.621V318.168H735.621ZM400.172 318.168V308.168H390.172V318.168H400.172ZM400.172 376.762H390.172V386.762H400.172V376.762ZM203.883 668.754L201.933 658.946L192.156 660.89L194.069 670.673L203.883 668.754ZM287.379 652.152L297.312 651.002L296.065 640.23L285.429 642.344L287.379 652.152ZM437.281 674.613L436.873 684.605L437.077 684.613H437.281V674.613ZM385.035 634.574L394.562 631.534L391.864 623.08L383.149 624.754L385.035 634.574ZM298.609 651.176L296.723 641.355L287.517 643.124L288.688 652.424L298.609 651.176ZM451.441 762.992L451.164 772.988L451.303 772.992H451.441V762.992ZM560.328 476.371L560.382 466.371L560.355 466.371H560.328V476.371ZM303.492 476.371H293.492V486.371H303.492V476.371ZM303.492 219.535V209.535H293.492V219.535H303.492ZM735.621 219.535V229.535H745.621V219.535H735.621ZM735.621 130.668H745.621V120.668H735.621V130.668ZM216.09 130.668V120.668H206.09V130.668H216.09ZM216.09 564.75H206.09V574.75H216.09V564.75ZM322.77 466.117V228.324H302.77V466.117H322.77ZM312.77 238.324H735.621V218.324H312.77V238.324ZM725.621 228.324V318.168H745.621V228.324H725.621ZM735.621 308.168H400.172V328.168H735.621V308.168ZM390.172 318.168V376.762H410.172V318.168H390.172ZM400.172 386.762H548.121V366.762H400.172V386.762ZM548.121 386.762C629.673 386.762 689.379 415.702 729.033 458.41C768.84 501.284 789.048 558.701 790.137 616.452C791.227 674.228 773.167 731.671 737.314 774.503C701.635 817.126 647.961 845.766 576.441 845.766V865.766C653.848 865.766 713.15 834.529 752.65 787.34C791.978 740.358 811.302 678.05 810.133 616.075C808.964 554.076 787.272 491.742 743.689 444.802C699.954 397.697 634.782 366.762 548.121 366.762V386.762ZM576.441 845.766H445.582V865.766H576.441V845.766ZM445.582 845.766C337.797 845.766 234.126 771.303 213.697 666.835L194.069 670.673C216.608 785.931 329.734 865.766 445.582 865.766V845.766ZM205.833 678.562L289.329 661.96L285.429 642.344L201.933 658.946L205.833 678.562ZM277.445 653.303C287.588 740.851 373.571 782.27 453.883 782.27V762.27C377.944 762.27 305.724 723.61 297.312 651.002L277.445 653.303ZM453.883 782.27H572.047V762.27H453.883V782.27ZM572.047 782.27C621.609 782.27 659.16 761.741 683.844 730.651C708.326 699.817 719.759 659.144 718.701 618.93C717.642 578.701 704.064 538.106 677.45 507.403C650.654 476.491 611.053 456.117 559.352 456.117V476.117C605.306 476.117 639.375 494.013 662.338 520.503C685.483 547.205 697.753 583.147 698.708 619.456C699.664 655.781 689.277 691.645 668.181 718.215C647.288 744.529 615.503 762.27 572.047 762.27V782.27ZM559.352 456.117H312.77V476.117H559.352V456.117ZM570.094 574.75C579.891 574.75 587.39 579.476 592.855 587.531C598.504 595.855 601.734 607.549 601.842 619.771C601.951 631.999 598.926 643.623 593.382 651.866C588.056 659.784 580.491 664.613 570.094 664.613V684.613C588.016 684.613 601.448 675.71 609.977 663.028C618.288 650.672 621.977 634.83 621.841 619.593C621.706 604.349 617.734 588.576 609.405 576.301C600.894 563.757 587.64 554.75 570.094 554.75V574.75ZM570.094 664.613H437.281V684.613H570.094V664.613ZM437.689 664.622C418.006 663.818 400.622 650.523 394.562 631.534L375.509 637.615C384.097 664.524 408.705 683.455 436.873 684.605L437.689 664.622ZM383.149 624.754L296.723 641.355L300.496 660.996L386.922 644.395L383.149 624.754ZM288.688 652.424C298.893 733.529 378.92 770.982 451.164 772.988L451.719 752.996C383.338 751.097 316.881 716.284 308.531 649.927L288.688 652.424ZM451.441 772.992H572.047V752.992H451.441V772.992ZM572.047 772.992C617.994 772.992 652.89 753.706 675.852 724.53C698.611 695.612 709.287 657.494 708.387 619.809C707.486 582.107 694.981 543.996 670.289 515.075C645.414 485.938 608.566 466.631 560.382 466.371L560.274 486.371C602.667 486.599 633.994 503.364 655.079 528.061C676.347 552.972 687.584 586.455 688.393 620.287C689.201 654.135 679.553 687.489 660.136 712.16C640.923 736.573 611.793 752.992 572.047 752.992V772.992ZM560.328 466.371H303.492V486.371H560.328V466.371ZM313.492 476.371V219.535H293.492V476.371H313.492ZM303.492 229.535H735.621V209.535H303.492V229.535ZM745.621 219.535V130.668H725.621V219.535H745.621ZM735.621 120.668H216.09V140.668H735.621V120.668ZM206.09 130.668V564.75H226.09V130.668H206.09ZM216.09 574.75H570.094V554.75H216.09V574.75Z" fill="#56AED1" mask="url(#path-5-outside-3_1_2)"/>
<path d="M133.443 630L78.8926 575.654V412.207L133.443 357.861H169.537V630H133.443ZM244.186 466.963V412.207H183.893V357.861H280.484L334.83 412.207V466.963H244.186ZM183.893 630V575.654H244.186V535.869H334.83V575.654L280.484 630H183.893ZM592.991 630L581.506 600.264H492.502L511.37 546.328H560.588L487.786 357.861H576.174L684.661 630H592.991ZM380.735 630L477.942 370.166L518.137 478.242L468.303 630H380.735ZM692.626 417.129V357.861H928.876V417.129H692.626ZM763.583 630V431.279H857.919V630H763.583Z" fill="#F433CF"/>
</g>
<defs>
<clipPath id="clip0_1_2">
<rect width="1000" height="1000" fill="white"/>
</clipPath>
</defs>
</svg>
